<svg height="512pt" viewBox="0 0 512 512" width="512pt" xmlns="http://www.w3.org/2000/svg"><path d="m416 512h-320c-53.023438 0-96-42.976562-96-96v-320c0-53.023438 42.976562-96 96-96h320c53.023438 0 96 42.976562 96 96v320c0 53.023438-42.976562 96-96 96zm0 0" fill="#fff9dd"/><path d="m328 224h-144c-13.230469 0-24 10.769531-24 24v112c0 13.230469 10.769531 24 24 24h144c13.230469 0 24-10.769531 24-24v-112c0-13.230469-10.769531-24-24-24zm0 0" fill="#ffd200"/><path d="m320 192v32h-21.328125v-32c0-23.566406-19.085937-42.671875-42.671875-42.671875s-42.671875 19.105469-42.671875 42.671875v32h-21.328125v-32c0-35.3125 28.6875-64 64-64s64 28.6875 64 64zm0 0" fill="#ffe777"/></svg>