<svg height="512pt" viewBox="0 0 512 512" width="512pt" xmlns="http://www.w3.org/2000/svg"><path d="m416 512h-320c-53.023438 0-96-42.976562-96-96v-320c0-53.023438 42.976562-96 96-96h320c53.023438 0 96 42.976562 96 96v320c0 53.023438-42.976562 96-96 96zm0 0" fill="#ffe6e2"/><path d="m379.9375 243.710938-118.402344-113.488282c-3.085937-2.957031-7.984375-2.957031-11.070312 0l-118.527344 113.617188c-2.496094 2.496094-3.9375 5.96875-3.9375 9.488281 0 7.359375 5.984375 13.328125 13.328125 13.328125h18.671875v96c0 11.792969 9.550781 21.34375 21.328125 21.34375h149.328125c11.792969 0 21.34375-9.550781 21.34375-21.328125v-96h18.671875c7.359375 0 13.328125-5.984375 13.328125-13.328125 0-3.535156-1.441406-7.007812-4.0625-9.632812zm0 0" fill="#fc573b"/></svg>