<svg height="448pt" viewBox="0 -18 448 447" width="448pt" xmlns="http://www.w3.org/2000/svg"><path d="m0 379.300781h216v32h-216zm0 0"/><path d="m232 379.300781h216v32h-216zm0 0"/><path d="m224 280.292969 137.296875-129.792969c25.039063-25.222656 32.449219-63.035156 18.78125-95.84375-13.671875-32.808594-45.734375-54.175781-81.277344-54.15625-18.402343 0-40.601562 12.0625-62.402343 33.96875l-12.4375 12.574219-12.648438-12.648438c-15.441406-15.421875-38.746094-33.816406-62.191406-33.816406-35.597656.007813-67.6875 21.453125-81.316406 54.339844-13.625 32.886719-6.109376 70.742187 19.050781 95.925781zm0 0"/><path d="m426.777344 340.5c-47.558594-21.585938-102.039063-21.972656-149.898438-1.0625l-12 5.253906 2.097656-1.917968c33.488282-30.933594 81.679688-40.070313 124.167969-23.546876l30 11.546876 5.742188-14.945313-30-11.535156c-48.148438-18.726563-102.761719-8.371094-140.71875 26.679687l-32.167969 29.472656-32.152344-29.472656c-37.957031-35.050781-92.566406-45.40625-140.71875-26.679687l-30 11.535156 5.742188 14.945313 30-11.546876c42.488281-16.527343 90.679687-7.390624 124.167968 23.546876l2.097657 1.917968-12-5.253906c-47.859375-20.910156-102.339844-20.523438-149.898438 1.0625l-16.535156 7.519531 6.625 14.558594 16.535156-7.511719c43.421875-19.703125 93.164063-20.054687 136.863281-.972656l21.035157 9.207031h76.476562l21.050781-9.207031c43.699219-19.078125 93.441407-18.722656 136.863282.972656l16.535156 7.511719 6.625-14.558594zm0 0"/></svg>