<?xml version="1.0"?>
<svg xmlns="http://www.w3.org/2000/svg" viewBox="0 0 64 64" width="512" height="512"><g id="Book-Online-Arrow-Direct-Learing-Cursor"><path d="M48.24,7.83A2.027,2.027,0,0,0,46.61,7H26.72a2.009,2.009,0,0,0-1.9,1.37l-3.33,10A1.993,1.993,0,0,0,23.39,21H43.28a2.009,2.009,0,0,0,1.9-1.37l3.33-10A2.022,2.022,0,0,0,48.24,7.83ZM43.28,19H23.39L26.72,9H46.61Z"/><path d="M57.07,5.95l-8.13,24.4a1,1,0,1,1-1.9-.64L55.17,5.32a.963.963,0,0,0-.13-.9A.983.983,0,0,0,54.23,4H20.44a1,1,0,0,0-.95.68l-14.66,44a.963.963,0,0,0,.13.9.983.983,0,0,0,.81.42H40a1,1,0,0,1,0,2H6.65A3,3,0,0,0,4,54.98V57a3.009,3.009,0,0,0,3,3H45.28l.76-2.3a1,1,0,1,1,1.9.64l-.99,2.98A1.014,1.014,0,0,1,46,62H7a5,5,0,0,1-5-5V54.98A4.973,4.973,0,0,1,3.75,51.2a2.923,2.923,0,0,1-.41-.45,2.957,2.957,0,0,1-.41-2.7l14.67-44A2.978,2.978,0,0,1,20.44,2H54.23a3,3,0,0,1,2.84,3.95Z"/><path d="M61.316,15.051a1,1,0,0,0-1.265.633l-6,18a1,1,0,0,0,1.9.632l6-18A1,1,0,0,0,61.316,15.051Z"/><path d="M59.53,41.15l-24-15a.992.992,0,0,0-1.17.08,1.008,1.008,0,0,0-.29,1.15l11,27A1.011,1.011,0,0,0,46,55a.34.34,0,0,0,.1-.01.977.977,0,0,0,.88-.81l1.87-10.25L59.09,43a1.006,1.006,0,0,0,.44-1.85ZM47.91,42a1,1,0,0,0-.89.82l-1.39,7.62L37.09,29.49,55.95,41.27Z"/></g></svg>
