<svg height="512" viewBox="0 0 64 64" width="512" xmlns="http://www.w3.org/2000/svg"><g id="Light-Lamp-Idea-Blub-Creative"><path d="m26.55 29.38a1 1 0 0 1 .45.83v2.61l10-1.67v-.94a1 1 0 0 1 .45-.83 10 10 0 1 0 -10.9 0zm.743-7.087a1 1 0 0 1 1.414 0l2.236 2.236 5.3-6.18a1 1 0 0 1 1.518 1.3l-6 7a1 1 0 0 1 -.721.348h-.04a1 1 0 0 1 -.707-.293l-3-3a1 1 0 0 1 0-1.411z"/><path d="m29 45h6a1 1 0 0 0 1-1v-2.653l2.164-.361a1 1 0 1 0 -.328-1.972l-12 2a1 1 0 0 0 .164 1.986.927.927 0 0 0 .165-.014l1.835-.306v1.32a1 1 0 0 0 1 1z"/><path d="m9 52h51v-5h-50a6 6 0 0 0 0 12h50v-5h-51a1 1 0 0 1 0-2z"/><path d="m32 7a1 1 0 0 0 1-1v-3a1 1 0 0 0 -2 0v3a1 1 0 0 0 1 1z"/><path d="m14 21h3a1 1 0 0 0 0-2h-3a1 1 0 0 0 0 2z"/><path d="m47 21h3a1 1 0 0 0 0-2h-3a1 1 0 0 0 0 2z"/><path d="m20.293 10.707a1 1 0 0 0 1.414-1.414l-2-2a1 1 0 1 0 -1.414 1.414z"/><path d="m43 11a1 1 0 0 0 .707-.293l2-2a1 1 0 1 0 -1.414-1.414l-2 2a1 1 0 0 0 .707 1.707z"/><path d="m37.836 35.014-12 2a1 1 0 0 0 .164 1.986.927.927 0 0 0 .165-.014l12-2a1 1 0 1 0 -.328-1.972z"/></g></svg>